# xmcd CD database file
#
# Track frame offsets:
#	150
#	10918
#	20588
#	30675
#	41136
#	53346
#	64027
#	77155
#	87085
#	94743
#	103160
#	114030
#	130131
#	142190
#
# Disc length: 2136 seconds
#
# Revision: 3
# Processed by: cddbd v1.5.2PL0 Copyright (c) Steve Scherf et al.
# Submitted via: CDex 1.51
#
DISCID=af08560e
DTITLE=Johnny Cash - The shadow of ...  [CD 2-3]
DYEAR=2008
DGENRE=Country
TTITLE0=Rock Island Line
TTITLE1=Born To Lose
TTITLE2=The Ways Of A Woman In Love
TTITLE3=Cold Cold Heart
TTITLE4=I Walk The Line
TTITLE5=Just Thought You'd Like To Know
TTITLE6=Thanks A Lot
TTITLE7=Goodbye Little Darling
TTITLE8=Hey Good Lookin'
TTITLE9=I Forgot To Remember To Forget
TTITLE10=I Love You Because
TTITLE11=City Of New Orleans
TTITLE12=Jackson
TTITLE13=Orange Blosson Special
EXTD=YEAR: 2008
EXTT0=
EXTT1=
EXTT2=
EXTT3=
EXTT4=
EXTT5=
EXTT6=
EXTT7=
EXTT8=
EXTT9=
EXTT10=
EXTT11=
EXTT12=
EXTT13=
PLAYORDER=
